<svg xmlns="http://www.w3.org/2000/svg" xmlns:xlink="http://www.w3.org/1999/xlink" width="23" height="20" viewBox="0 0 23 20"><defs><path id="nsf4a" d="M399 743h-20l10.07-16.84z"/><path id="nsf4b" d="M378 744v-19h22v19zm11.07-17.84L379 743h20z"/><path id="nsf4c" d="M379 743h20zm0-17h20v17l-9.93-16.84L379 743z"/><path id="nsf4g" d="M389 732a1 1 0 0 1 1 1v4a1 1 0 1 1-2 0v-4a1 1 0 0 1 1-1z"/><path id="nsf4h" d="M389 739a1 1 0 1 1 0 2 1 1 0 0 1 0-2z"/><filter id="nsf4d" width="200%" height="200%" x="-50%" y="-50%"><feGaussianBlur in="SourceGraphic" result="FeGaussianBlur1018Out" stdDeviation="0 0"/></filter><mask id="nsf4e"><use fill="#fff" xlink:href="#nsf4a"/></mask><clipPath id="nsf4f"><use fill="#fff" xlink:href="#nsf4b"/></clipPath></defs><g><g transform="translate(-377 -725)"><use fill="#fff" fill-opacity=".21" stroke="#fff" stroke-opacity=".21" stroke-width="0" filter="url(#nsf4d)" mask="url(&quot;#nsf4e&quot;)" xlink:href="#nsf4c"/><use fill="#ffc107" xlink:href="#nsf4a"/><use fill="#fff" fill-opacity=".21" stroke="#fff" stroke-opacity=".21" stroke-width="0" filter="url(#nsf4d)" mask="url(&quot;#nsf4e&quot;)" xlink:href="#nsf4c"/><use fill="#fff" fill-opacity="0" stroke="#e5ad06" stroke-linecap="round" stroke-linejoin="round" stroke-miterlimit="50" stroke-width="2" clip-path="url(&quot;#nsf4f&quot;)" xlink:href="#nsf4a"/></g><g transform="translate(-377 -725)"><use xlink:href="#nsf4g"/></g><g transform="translate(-377 -725)"><use xlink:href="#nsf4h"/></g></g></svg>